<svg width="50" height="49" viewBox="0 0 50 49" fill="none" xmlns="http://www.w3.org/2000/svg">
<path d="M44.2646 10.0352C43.5666 7.44147 41.8549 5.4782 38.9571 4.70727L21.92 0.256434C19.3362 -0.408332 16.6124 0.222134 14.7266 2.11517L2.22744 14.5922C0.131763 16.6959 -0.426324 19.1492 0.307488 21.8818L4.81124 38.8815C5.57922 41.7905 7.53496 43.5087 10.1188 44.2094L27.1575 48.7305C29.7413 49.4312 32.2893 48.7648 34.3508 46.697L46.85 34.3245C48.9457 32.2208 49.468 29.627 48.77 27.0349L44.2646 10.0352ZM32.0095 35.7275L30.2294 43.7537C29.9496 45.0163 28.6935 45.9261 26.8077 45.4361L10.9209 41.1943C9.03513 40.7043 8.09305 39.267 7.77903 38.0746L3.27528 21.0765C2.71719 19.0087 3.37941 17.8164 4.39308 16.8005L16.1943 5.02413C17.4162 3.8318 19.0221 3.90203 19.8959 4.88367L25.3775 10.9466C25.8656 11.4725 26.1813 12.0328 26.3895 12.7694L31.9753 33.6238C32.1494 34.3261 32.1494 35.0268 32.0095 35.7275ZM33.0931 43.9987L34.8389 37.0587C35.2929 35.2359 35.2587 34.0093 34.9431 32.8169L29.3557 11.9985C29.0059 10.7359 28.5178 9.71997 27.6456 8.8445L22.1282 3.3761L31.2057 8.8788C33.1956 10.0711 33.5796 10.8061 33.8936 12.0328L38.8172 30.5041C39.1312 31.7308 38.9571 32.7826 38.2591 34.1138L33.0931 43.9987ZM44.6502 32.1179L38.8546 38.4617L40.6004 35.5528C41.6824 33.7659 42.3463 31.8026 41.7882 29.6989L36.863 11.2275C36.3049 9.15973 34.9772 7.79263 32.9873 6.84693L29.8097 5.30507L38.1549 7.72403C40.0049 8.24997 40.8787 9.30183 41.2968 10.8437L45.8006 27.8434C46.2204 29.3837 45.9063 30.7508 44.6502 32.1179Z" fill="#292929"/>
</svg>
