<svg width="608" height="340" viewBox="0 0 608 340" fill="none" xmlns="http://www.w3.org/2000/svg">
<g clip-path="url(#clip0_0_3)">
<path d="M447 191.459C455.262 191.459 461.959 184.762 461.959 176.5C461.959 168.238 455.262 161.541 447 161.541C438.738 161.541 432.041 168.238 432.041 176.5C432.041 184.762 438.738 191.459 447 191.459Z" stroke="#D3D6DF" stroke-width="0.902111"/>
<path opacity="0.96" d="M446.999 206.868C463.771 206.868 477.368 193.271 477.368 176.499C477.368 159.727 463.771 146.13 446.999 146.13C430.227 146.13 416.63 159.727 416.63 176.499C416.63 193.271 430.227 206.868 446.999 206.868Z" stroke="#D3D6DF" stroke-width="0.902111"/>
<path opacity="0.88" d="M446.999 222.277C472.282 222.277 492.777 201.782 492.777 176.499C492.777 151.216 472.282 130.721 446.999 130.721C421.716 130.721 401.22 151.216 401.22 176.499C401.22 201.782 421.716 222.277 446.999 222.277Z" stroke="#D3D6DF" stroke-width="0.902111"/>
<path opacity="0.8" d="M447.001 237.689C480.794 237.689 508.189 210.294 508.189 176.501C508.189 142.708 480.794 115.313 447.001 115.313C413.208 115.313 385.813 142.708 385.813 176.501C385.813 210.294 413.208 237.689 447.001 237.689Z" stroke="#D3D6DF" stroke-width="0.902111"/>
<path opacity="0.72" d="M447 253.098C489.304 253.098 523.598 218.804 523.598 176.5C523.598 134.196 489.304 99.9019 447 99.9019C404.696 99.9019 370.402 134.196 370.402 176.5C370.402 218.804 404.696 253.098 447 253.098Z" stroke="#D3D6DF" stroke-width="0.902111"/>
<path opacity="0.64" d="M446.998 268.506C497.813 268.506 539.006 227.313 539.006 176.498C539.006 125.683 497.813 84.49 446.998 84.49C396.183 84.49 354.99 125.683 354.99 176.498C354.99 227.313 396.183 268.506 446.998 268.506Z" stroke="#D3D6DF" stroke-width="0.902111"/>
<path opacity="0.56" d="M447.002 283.92C506.327 283.92 554.42 235.827 554.42 176.502C554.42 117.177 506.327 69.084 447.002 69.084C387.677 69.084 339.584 117.177 339.584 176.502C339.584 235.827 387.677 283.92 447.002 283.92Z" stroke="#D3D6DF" stroke-width="0.902111"/>
<path opacity="0.48" d="M446.999 299.327C514.835 299.327 569.827 244.335 569.827 176.499C569.827 108.663 514.835 53.671 446.999 53.671C379.163 53.671 324.171 108.663 324.171 176.499C324.171 244.335 379.163 299.327 446.999 299.327Z" stroke="#D3D6DF" stroke-width="0.902111"/>
<path opacity="0.4" d="M447.002 318.59C525.476 318.59 589.092 254.974 589.092 176.5C589.092 98.0259 525.476 34.41 447.002 34.41C368.528 34.41 304.912 98.0259 304.912 176.5C304.912 254.974 368.528 318.59 447.002 318.59Z" stroke="#D3D6DF" stroke-width="0.902111"/>
<path opacity="0.32" d="M447 343.631C539.304 343.631 614.131 268.804 614.131 176.5C614.131 84.1961 539.304 9.369 447 9.369C354.696 9.369 279.869 84.1961 279.869 176.5C279.869 268.804 354.696 343.631 447 343.631Z" stroke="#D3D6DF" stroke-width="0.902111"/>
<path opacity="0.24" d="M447 378.303C558.453 378.303 648.803 287.953 648.803 176.5C648.803 65.0473 558.453 -25.303 447 -25.303C335.547 -25.303 245.197 65.0473 245.197 176.5C245.197 287.953 335.547 378.303 447 378.303Z" stroke="#D3D6DF" stroke-width="0.902111"/>
<path opacity="0.16" d="M447 418.754C580.793 418.754 689.254 310.293 689.254 176.5C689.254 42.7068 580.793 -65.754 447 -65.754C313.207 -65.754 204.746 42.7068 204.746 176.5C204.746 310.293 313.207 418.754 447 418.754Z" stroke="#D3D6DF" stroke-width="0.902111"/>
<path opacity="0.12" d="M446.999 464.982C606.324 464.982 735.482 335.824 735.482 176.499C735.482 17.1742 606.324 -111.984 446.999 -111.984C287.674 -111.984 158.516 17.1742 158.516 176.499C158.516 335.824 287.674 464.982 446.999 464.982Z" stroke="#D3D6DF" stroke-width="0.902111"/>
<path opacity="0.08" d="M446.998 543.957C649.94 543.957 814.457 379.44 814.457 176.498C814.457 -26.444 649.94 -190.961 446.998 -190.961C244.056 -190.961 79.539 -26.444 79.539 176.498C79.539 379.44 244.056 543.957 446.998 543.957Z" stroke="#D3D6DF" stroke-width="0.902111"/>
<path opacity="0.08" d="M447 646.049C706.325 646.049 916.549 435.825 916.549 176.5C916.549 -82.8247 706.325 -293.049 447 -293.049C187.675 -293.049 -22.549 -82.8247 -22.549 176.5C-22.549 435.825 187.675 646.049 447 646.049Z" stroke="#D3D6DF" stroke-width="0.902111"/>
<path d="M447.177 180.202C449.14 180.202 450.731 178.611 450.731 176.648C450.731 174.685 449.14 173.094 447.177 173.094C445.214 173.094 443.623 174.685 443.623 176.648C443.623 178.611 445.214 180.202 447.177 180.202Z" fill="#F87853"/>
</g>
<defs>
<clipPath id="clip0_0_3">
<rect width="608" height="340" fill="white"/>
</clipPath>
</defs>
</svg>
