<svg width="100" height="320" viewBox="0 0 100 320" fill="none" xmlns="http://www.w3.org/2000/svg">
<g clip-path="url(#clip0_1_2)">
<g style="mix-blend-mode:multiply">
<path d="M8.5 196L8.5 272C8.5 276.142 11.8579 279.5 16 279.5L92 279.5C96.1421 279.5 99.5 276.142 99.5 272L99.5 196C99.5 191.858 96.1421 188.5 92 188.5L16 188.5C11.8579 188.5 8.5 191.858 8.5 196Z" stroke="#B9BBC1"/>
</g>
<g style="mix-blend-mode:multiply">
<path d="M8.5 -24L8.5 52C8.5 56.1421 11.8579 59.5 16 59.5L92 59.5C96.1421 59.5 99.5 56.1421 99.5 52L99.5 -24C99.5 -28.1421 96.1421 -31.5 92 -31.5L16 -31.5C11.8579 -31.5 8.5 -28.1421 8.5 -24Z" stroke="#B9BBC1"/>
</g>
<g style="mix-blend-mode:multiply">
<path d="M54 40.5C28.871 40.5 8.5 60.871 8.5 86C8.5 111.129 28.871 131.5 54 131.5C79.129 131.5 99.5 111.129 99.5 86C99.5 60.871 79.1289 40.5 54 40.5Z" stroke="#B9BBC1"/>
</g>
<g style="mix-blend-mode:multiply">
<path d="M54 263.5C28.871 263.5 8.5 283.871 8.5 309C8.5 334.129 28.871 354.5 54 354.5C79.129 354.5 99.5 334.129 99.5 309C99.5 283.871 79.1289 263.5 54 263.5Z" stroke="#B9BBC1"/>
</g>
<g style="mix-blend-mode:multiply">
<path d="M21.1958 170.685L75.0356 204.249C85.8547 210.993 91.2643 214.366 95.3822 212.08C99.5 209.795 99.5 203.42 99.5 190.671L99.5 119.972C99.5 106.591 99.5 99.901 95.219 97.653C90.9381 95.405 85.4306 99.204 74.4156 106.801L20.5758 143.936C11.5134 150.187 6.98216 153.312 7.08225 157.63C7.18233 161.949 11.8535 164.861 21.1958 170.685Z" stroke="#B9BBC1"/>
</g>
</g>
<defs>
<clipPath id="clip0_1_2">
<rect width="320" height="100" fill="white" transform="translate(0 320) rotate(-90)"/>
</clipPath>
</defs>
</svg>
