<svg width="258" height="97" viewBox="0 0 258 97" fill="none" xmlns="http://www.w3.org/2000/svg">
<line x1="257.475" y1="96.6387" x2="257.475" y2="0.000778221" stroke="#48C17A" stroke-width="1.05041"/>
<line x1="250.272" y1="96.6387" x2="250.272" y2="0.000778221" stroke="#C8F0D9" stroke-width="1.05041"/>
<line x1="242.971" y1="96.6387" x2="242.971" y2="0.000778221" stroke="#C8F0D9" stroke-width="1.05041"/>
<line x1="233.567" y1="96.6387" x2="233.567" y2="0.000778221" stroke="#C8F0D9" stroke-width="1.05041"/>
<line x1="222.063" y1="96.6387" x2="222.063" y2="0.000778221" stroke="#C8F0D9" stroke-width="1.05041"/>
<line x1="209.459" y1="96.6387" x2="209.459" y2="0.000778221" stroke="#C8F0D9" stroke-width="1.05041"/>
<line x1="194.752" y1="96.6387" x2="194.752" y2="0.000778221" stroke="#C8F0D9" stroke-width="1.05041"/>
<line x1="177.945" y1="96.6387" x2="177.945" y2="0.000778221" stroke="#C8F0D9" stroke-width="1.05041"/>
<line x1="159.037" y1="96.6387" x2="159.037" y2="0.000778221" stroke="#D3D6DF" stroke-width="1.05041"/>
<line x1="138.029" y1="96.6387" x2="138.029" y2="0.000778221" stroke="#D3D6DF" stroke-width="1.05041"/>
<line x1="114.92" y1="96.6387" x2="114.92" y2="0.000778221" stroke="#D3D6DF" stroke-width="1.05041"/>
<line x1="89.7092" y1="96.6387" x2="89.7092" y2="0.000778221" stroke="#D3D6DF" stroke-width="1.05041"/>
<line x1="62.4006" y1="96.6387" x2="62.4006" y2="0.000778221" stroke="#D3D6DF" stroke-width="1.05041"/>
<line x1="32.9865" y1="96.6387" x2="32.9865" y2="0.000778221" stroke="#D3D6DF" stroke-width="1.05041"/>
<line x1="1.47479" y1="96.6387" x2="1.47479" y2="0.000778221" stroke="#D3D6DF" stroke-width="1.05041"/>
</svg>
